<?xml version="1.0" encoding="UTF-8" standalone="no"?>
<!-- Created with Inkscape (http://www.inkscape.org/) -->

<svg
   xmlns:dc="http://purl.org/dc/elements/1.1/"
   xmlns:cc="http://creativecommons.org/ns#"
   xmlns:rdf="http://www.w3.org/1999/02/22-rdf-syntax-ns#"
   xmlns:svg="http://www.w3.org/2000/svg"
   xmlns="http://www.w3.org/2000/svg"
   xmlns:sodipodi="http://sodipodi.sourceforge.net/DTD/sodipodi-0.dtd"
   xmlns:inkscape="http://www.inkscape.org/namespaces/inkscape"
   width="84.980453mm"
   height="19.6833mm"
   viewBox="0 0 84.980453 19.6833"
   version="1.1"
   id="svg8"
   inkscape:version="0.92.5 (2060ec1f9f, 2020-04-08)"
   sodipodi:docname="logo.svg">
  <defs
     id="defs2">
    <inkscape:path-effect
       effect="roughen"
       id="path-effect670"
       is_visible="true"
       method="segments"
       max_segment_size="1"
       segments="2"
       displace_x="1;1"
       displace_y="1;1"
       global_randomize="0.2;1"
       handles="along"
       shift_nodes="true"
       fixed_displacement="false"
       spray_tool_friendly="false" />
    <inkscape:path-effect
       effect="roughen"
       id="path-effect668"
       is_visible="true"
       method="segments"
       max_segment_size="1"
       segments="2"
       displace_x="1;1"
       displace_y="1;1"
       global_randomize="0.1;1"
       handles="along"
       shift_nodes="true"
       fixed_displacement="false"
       spray_tool_friendly="false" />
    <inkscape:path-effect
       effect="roughen"
       id="path-effect664"
       is_visible="true"
       method="segments"
       max_segment_size="1"
       segments="2"
       displace_x="1;1"
       displace_y="1;1"
       global_randomize="0.1;1"
       handles="along"
       shift_nodes="true"
       fixed_displacement="false"
       spray_tool_friendly="false" />
    <inkscape:path-effect
       effect="roughen"
       id="path-effect662"
       is_visible="true"
       method="segments"
       max_segment_size="1"
       segments="2"
       displace_x="1;1"
       displace_y="1;1"
       global_randomize="0.2;1"
       handles="along"
       shift_nodes="true"
       fixed_displacement="false"
       spray_tool_friendly="false" />
    <inkscape:path-effect
       effect="roughen"
       id="path-effect660"
       is_visible="true"
       method="segments"
       max_segment_size="1"
       segments="2"
       displace_x="1;1"
       displace_y="1;1"
       global_randomize="0.3;1"
       handles="along"
       shift_nodes="true"
       fixed_displacement="false"
       spray_tool_friendly="false" />
    <inkscape:path-effect
       effect="roughen"
       id="path-effect658"
       is_visible="true"
       method="segments"
       max_segment_size="1"
       segments="2"
       displace_x="0.3;1"
       displace_y="0.3;1"
       global_randomize="0.7;2147483646"
       handles="along"
       shift_nodes="true"
       fixed_displacement="false"
       spray_tool_friendly="false" />
  </defs>
  <sodipodi:namedview
     id="base"
     pagecolor="#ffffff"
     bordercolor="#666666"
     borderopacity="1.0"
     inkscape:pageopacity="0.0"
     inkscape:pageshadow="2"
     inkscape:zoom="3.959798"
     inkscape:cx="143.96987"
     inkscape:cy="15.579432"
     inkscape:document-units="mm"
     inkscape:current-layer="text66"
     showgrid="false"
     inkscape:window-width="1920"
     inkscape:window-height="1009"
     inkscape:window-x="0"
     inkscape:window-y="34"
     inkscape:window-maximized="1" />
  <metadata
     id="metadata5">
    <rdf:RDF>
      <cc:Work
         rdf:about="">
        <dc:format>image/svg+xml</dc:format>
        <dc:type
           rdf:resource="http://purl.org/dc/dcmitype/StillImage" />
        <dc:title />
      </cc:Work>
    </rdf:RDF>
  </metadata>
  <g
     inkscape:label="Layer 1"
     inkscape:groupmode="layer"
     id="layer1"
     transform="translate(-51.68528,-48.5649)">
    <path
       sodipodi:nodetypes="scsss"
       inkscape:connector-curvature="0"
       id="path13"
       d="m 62.906851,53.532187 c -1.007485,0 -2.12059,-0.387102 -3.317616,-0.875887 -1.197026,-0.488785 -2.509243,-1.115471 -2.509243,-1.115471 0,0 0.875869,-0.301699 2.132744,-0.802068 1.256875,-0.500369 2.936285,-1.150573 3.94377,-1.150573 1.007487,0 1.716596,0.252451 2.213704,0.594053 0.497108,0.341602 0.643056,0.850176 0.643056,1.390073 0,0.539896 -0.0824,1.232688 -0.555101,1.567044 -0.4727,0.334356 -1.543827,0.392829 -2.551314,0.392829 z"
       style="fill:#000000;stroke-width:0.02443924"
       inkscape:path-effect="#path-effect660"
       inkscape:original-d="m 63.114978,53.449634 c -2.01497,0 -5.795589,-1.95514 -5.795589,-1.95514 0,0 3.780619,-1.95514 5.795589,-1.95514 2.014974,0 3.037448,0.875347 3.037448,1.95514 0,1.079793 -1.022474,1.95514 -3.037448,1.95514 z"
       transform="matrix(0.88258938,0,0,0.88258938,9.7411896,7.5521955)" />
    <path
       style="fill:#000000;stroke-width:0.02443924"
       d="m 49.51782,49.594389 c 1.007485,0 2.680244,0.556574 3.877271,1.045359 1.197026,0.488785 1.897472,0.885636 1.897472,0.885636 0,0 -0.991345,0.613509 -2.148472,1.094571 -1.157127,0.481063 -2.452349,0.862235 -3.459834,0.862235 -1.007486,0 -1.800351,-0.196428 -2.314763,-0.558377 -0.514411,-0.36195 -0.843144,-0.837543 -0.843144,-1.377439 0,-0.539897 0.371097,-0.892677 0.901781,-1.259458 0.530684,-0.366781 1.082203,-0.692527 2.089689,-0.692527 z"
       id="path15"
       inkscape:connector-curvature="0"
       sodipodi:nodetypes="scsss"
       inkscape:path-effect="#path-effect662"
       inkscape:original-d="m 49.656571,49.539354 c 2.014971,0 5.79559,1.95514 5.79559,1.95514 0,0 -3.780619,1.95514 -5.79559,1.95514 -2.014972,0 -3.037448,-0.875347 -3.037448,-1.95514 0,-1.079793 1.022476,-1.95514 3.037448,-1.95514 z"
       transform="matrix(0.89954418,0,0,0.89954418,9.8327725,6.6803398)" />
    <path
       style="fill:#000000;stroke-width:0.03209435"
       id="path17"
       inkscape:path-effect="#path-effect658"
       sodipodi:type="arc"
       sodipodi:cx="56.335812"
       sodipodi:cy="48.020252"
       sodipodi:rx="2.2369933"
       sodipodi:ry="2.2369933"
       d="m 58.510948,48.170011 c 0,0.617728 -0.141436,1.03471 -0.546252,1.439526 -0.404816,0.404816 -1.040501,0.812197 -1.65823,0.812197 -0.617728,0 -1.256558,-0.253262 -1.654038,-0.6992 -0.39748,-0.445939 -0.548361,-1.084419 -0.548361,-1.702147 0,-0.617729 0.170758,-1.102862 0.574262,-1.507712 0.403504,-0.40485 0.973744,-0.620468 1.591473,-0.620468 0.617729,0 1.273075,0.243219 1.694394,0.620798 0.421318,0.377579 0.546752,1.039277 0.546752,1.657006 z"
       transform="matrix(0.79283409,0,0,0.79283409,15.265325,12.179994)" />
    <path
       style="fill:#000000;stroke-width:0.03566221"
       d="m 56.249748,52.465442 c -0.615218,0 -1.090912,0.341985 -1.533059,0.951034 -0.442146,0.60905 -0.884157,1.47467 -1.009418,2.684819 l 2.505888,0.0585 2.60582,-0.05767 c -0.132182,-1.218288 -0.468574,-2.11867 -0.912435,-2.729755 -0.443862,-0.611084 -1.041578,-0.906931 -1.656796,-0.906931 z"
       id="rect21"
       inkscape:connector-curvature="0"
       inkscape:path-effect="#path-effect664"
       inkscape:original-d="m 56.296135,52.439502 c -1.230437,0 -2.258544,1.22605 -2.509065,3.646348 h 5.018066 c -0.25052,-2.420298 -1.278566,-3.646348 -2.509001,-3.646348 z"
       transform="matrix(0.79283409,0,0,0.79283409,15.265325,12.179994)" />
    <path
       style="fill:#000000;stroke-width:0.03566221"
       d="m 53.666293,57.604751 c 0.02553,0.566254 0.231078,1.238021 0.368367,1.90575 0.137289,0.667728 0.195896,1.319345 0.396114,2.005024 l 1.782416,0.0585 1.882349,-0.05767 c 0.193296,-0.693817 0.35749,-1.380197 0.493033,-2.049961 0.135543,-0.669763 0.196048,-1.29697 0.221578,-1.863224 l -2.491098,0.06152 z"
       id="rect45"
       inkscape:connector-curvature="0"
       inkscape:path-effect="#path-effect668"
       inkscape:original-d="m 53.735669,57.577233 c 0.05106,1.132509 0.374467,2.55149 0.774904,3.922847 h 3.571123 c 0.400436,-1.371357 0.72378,-2.790338 0.774841,-3.922847 z"
       transform="matrix(0.79283409,0,0,0.79283409,15.265325,12.179994)" />
    <path
       style="fill:#000000;stroke-width:0.03566221"
       d="m 54.885988,63.043279 c 0.32645,0.976542 0.833677,1.925458 1.081408,2.559294 0.247731,0.633837 0.169141,0.931603 0.169141,0.931603 0,0 0.119928,-0.264977 0.407558,-0.906535 0.287629,-0.641559 0.770648,-1.627143 1.097098,-2.603686 l -1.357797,0.01427 z"
       id="rect49"
       inkscape:connector-curvature="0"
       inkscape:path-effect="#path-effect670"
       inkscape:original-d="m 54.978761,62.991399 c 0.652901,1.953085 1.317374,3.511887 1.317374,3.511887 0,0 0.664472,-1.558802 1.317372,-3.511887 z"
       transform="matrix(0.79283409,0,0,0.79283409,15.265325,12.179994)" />
    <g
       aria-label="BeeHealthy"
       style="font-style:normal;font-weight:normal;font-size:10.58333302px;line-height:1.25;font-family:sans-serif;letter-spacing:0px;word-spacing:0px;fill:#000000;fill-opacity:1;stroke:none;stroke-width:0.26458332"
       id="text66">
      <path
         d="m 72.522439,62.998867 -2.184399,-0.0508 q -0.186267,-0.7112 -0.220134,-6.400799 v -1.202267 q 0,-1.439333 0.270934,-2.1844 0.270933,-0.762 1.134533,-1.2192 0.440266,-0.220133 1.2192,-0.220133 0.795866,0 1.2192,0.1016 1.134533,0.237066 1.540933,0.880533 0.423333,0.643467 0.423333,1.7272 0,1.507067 -0.795866,2.218267 0.4064,0.0508 0.8128,0.4064 0.4064,0.3556 0.6604,0.728133 0.440266,0.677333 0.440266,1.845733 0,1.8288 -1.1176,2.607733 -1.100666,0.762 -3.4036,0.762 z m -1.049866,-8.246533 0.03387,1.9304 q 0.03387,0 0.575734,-0.06773 0.541866,-0.08467 0.9144,-0.169333 1.710266,-0.4064 1.710266,-1.947334 0,-0.762 -0.4572,-1.1176 -0.440266,-0.3556 -1.1684,-0.3556 -0.9144,0 -1.236133,0.321734 -0.135467,0.135466 -0.220133,0.237066 -0.08467,0.08467 -0.118534,0.287867 -0.03387,0.2032 -0.0508,0.287867 0,0.08467 0,0.321733 0.01693,0.237067 0.01693,0.270933 z m 3.81,3.6068 q -0.169334,-0.186266 -0.524934,-0.338666 -0.3556,-0.1524 -1.032933,-0.1524 -0.6604,0 -2.269067,0.220133 0,2.6416 0.08467,3.572933 1.9812,0 2.777067,-0.254 0.795866,-0.270933 1.0668,-0.643467 0.287866,-0.389466 0.287866,-0.8128 0,-0.440266 -0.01693,-0.6096 0,-0.186266 -0.1016,-0.491066 -0.08467,-0.321734 -0.270933,-0.491067 z"
         style="fill:#ffcc00"
         id="path22" />
      <path
         d="m 80.836705,55.192601 q 0.897467,0 1.710267,0.524933 0.8128,0.524934 0.8128,1.303867 0,0.762 -0.6604,1.490133 -0.6604,0.7112 -1.761067,0.8636 -0.474133,0.06773 -1.422399,0.06773 0.186266,1.439334 0.728133,1.896534 0.169333,0.186266 0.4572,0.186266 1.049866,0 1.761066,-0.6604 0.7112,-0.677333 1.016,-0.677333 0.135467,0 0.4064,0.254 0.270934,0.254 0.270934,0.474133 0,0.440267 -1.0668,1.27 -0.474134,0.389467 -1.151467,0.6604 -0.6604,0.254 -1.236133,0.254 -1.4732,0 -2.167467,-1.896533 -0.440266,-1.1684 -0.440266,-2.573867 0,-1.405466 0.6604,-2.421466 0.6604,-1.016 2.082799,-1.016 z m 0.08467,1.1684 q -0.643467,0 -1.100666,0.728133 -0.169334,0.254 -0.321734,1.151467 2.370667,0 2.370667,-1.1684 0,-0.7112 -0.948267,-0.7112 z"
         style="fill:#ffcc00"
         id="path24" />
      <path
         d="m 87.576152,55.192601 q 0.897467,0 1.710267,0.524933 0.8128,0.524934 0.8128,1.303867 0,0.762 -0.6604,1.490133 -0.6604,0.7112 -1.761067,0.8636 -0.474133,0.06773 -1.4224,0.06773 0.186267,1.439334 0.728133,1.896534 0.169334,0.186266 0.4572,0.186266 1.049867,0 1.761067,-0.6604 0.7112,-0.677333 1.016,-0.677333 0.135467,0 0.4064,0.254 0.270933,0.254 0.270933,0.474133 0,0.440267 -1.0668,1.27 -0.474133,0.389467 -1.151466,0.6604 -0.6604,0.254 -1.236134,0.254 -1.473199,0 -2.167466,-1.896533 -0.440267,-1.1684 -0.440267,-2.573867 0,-1.405466 0.6604,-2.421466 0.6604,-1.016 2.0828,-1.016 z m 0.08467,1.1684 q -0.643467,0 -1.100667,0.728133 -0.169333,0.254 -0.321733,1.151467 2.370666,0 2.370666,-1.1684 0,-0.7112 -0.948266,-0.7112 z"
         style="fill:#ffcc00"
         id="path26" />
      <path
         d="m 93.46893,56.547268 q 1.3208,0.220133 2.421467,0.220133 1.100666,0 1.405466,-0.01693 -0.03387,-1.286934 -0.03387,-2.472267 0,-1.185333 0,-1.608667 0,-0.423333 0.03387,-0.524933 0.03387,-0.118533 0.220134,-0.220133 0.186266,-0.1016 0.541866,-0.1016 0.508,0 0.508,0.6096 v 5.994399 q 0,1.862667 -0.08467,4.097867 -0.01693,0.491067 -0.829734,0.491067 -0.4064,0 -0.4064,-0.491067 l 0.06773,-4.487333 q -0.541867,0.03387 -1.490134,0.03387 -0.931333,0 -2.353733,-0.2032 0,2.235199 0.2032,4.673599 0.01693,0.270934 -0.237066,0.423334 -0.254,0.135466 -0.643467,0.135466 -0.372533,0 -0.4064,-0.389466 -0.220133,-2.404534 -0.220133,-4.741333 l 0.1016,-5.2832 q 0,-0.338667 0.254,-0.491067 0.254,-0.169333 0.541866,-0.169333 0.474134,0 0.474134,0.4572 z"
         style="font-style:normal;font-variant:normal;font-weight:normal;font-stretch:normal;font-size:16.93333244px;font-family:'Patrick Hand';-inkscape-font-specification:'Patrick Hand';stroke-width:0.26458332"
         id="path28" />
      <path
         d="m 102.24037,55.192601 q 0.89747,0 1.71027,0.524933 0.8128,0.524934 0.8128,1.303867 0,0.762 -0.6604,1.490133 -0.6604,0.7112 -1.76107,0.8636 -0.47413,0.06773 -1.4224,0.06773 0.18627,1.439334 0.72813,1.896534 0.16934,0.186266 0.4572,0.186266 1.04987,0 1.76107,-0.6604 0.7112,-0.677333 1.016,-0.677333 0.13547,0 0.4064,0.254 0.27093,0.254 0.27093,0.474133 0,0.440267 -1.0668,1.27 -0.47413,0.389467 -1.15146,0.6604 -0.6604,0.254 -1.23614,0.254 -1.4732,0 -2.167462,-1.896533 -0.440267,-1.1684 -0.440267,-2.573867 0,-1.405466 0.660399,-2.421466 0.6604,-1.016 2.0828,-1.016 z m 0.0847,1.1684 q -0.64347,0 -1.10067,0.728133 -0.16933,0.254 -0.32173,1.151467 2.37066,0 2.37066,-1.1684 0,-0.7112 -0.94826,-0.7112 z"
         style="font-style:normal;font-variant:normal;font-weight:normal;font-stretch:normal;font-size:16.93333244px;font-family:'Patrick Hand';-inkscape-font-specification:'Patrick Hand';stroke-width:0.26458332"
         id="path30" />
      <path
         d="m 111.26582,55.124868 q 0.74507,0 0.74507,1.27 0,0.135466 0,0.287866 l -0.0339,1.185334 q -0.0169,0.558799 -0.0169,1.100666 l 0.254,3.826933 q 0,0.423334 -0.8636,0.423334 -0.0508,0 -0.254,0 -0.18627,0 -0.27094,-0.1524 -0.0677,-0.1524 -0.0169,-0.372534 0.0677,-0.220133 -0.0339,-0.491066 -0.77893,0.829733 -2.06586,0.829733 -2.3876,0 -2.3876,-3.691467 0,-2.048933 0.762,-3.098799 0.77893,-1.049867 2.21826,-1.049867 0.67734,0 1.35467,0.237067 0.22013,-0.3048 0.6096,-0.3048 z m -1.76107,1.540933 q -0.9652,0 -1.43933,0.5588 -0.47413,0.5588 -0.47413,2.048933 0,2.506133 1.35466,2.506133 0.3556,0 0.77894,-0.321733 0.44026,-0.321733 0.6096,-0.728133 0.32173,-0.9144 0.32173,-1.998134 0,-1.083733 -0.27093,-1.574799 -0.254,-0.491067 -0.88054,-0.491067 z"
         style="font-style:normal;font-variant:normal;font-weight:normal;font-stretch:normal;font-size:16.93333244px;font-family:'Patrick Hand';-inkscape-font-specification:'Patrick Hand';stroke-width:0.26458332"
         id="path32" />
      <path
         d="m 113.12846,52.076868 q 0.0508,-0.643467 0.2032,-0.829733 0.16933,-0.2032 0.52493,-0.2032 0.72813,0 0.72813,0.592666 0,0.4572 -0.0847,2.3876 -0.0677,1.9304 -0.0677,3.4544 0,1.524 0.11854,2.455333 0.2032,1.6256 0.57573,1.6256 0.37253,0 0.5588,-0.524933 0.0847,-0.2032 0.27093,-0.3556 0.18627,-0.169334 0.47414,-0.169334 0.59266,0 0.59266,0.999067 0,0.541867 -0.59266,1.083733 -0.57574,0.524934 -1.15147,0.524934 -0.57573,0 -0.93133,-0.186267 -0.33867,-0.2032 -0.5588,-0.592667 -0.2032,-0.389466 -0.33867,-0.745066 -0.11853,-0.372534 -0.16933,-0.897467 -0.1016,-0.846667 -0.1524,-2.709333 -0.0339,-1.8796 -0.0339,-3.572933 0,-1.710267 0.0339,-2.3368 z"
         style="font-style:normal;font-variant:normal;font-weight:normal;font-stretch:normal;font-size:16.93333244px;font-family:'Patrick Hand';-inkscape-font-specification:'Patrick Hand';stroke-width:0.26458332"
         id="path34" />
      <path
         d="m 118.10684,55.124868 0.84666,0.01693 q 0.28787,0 0.32174,-0.01693 v -3.471333 q 0.0169,-0.287867 0.28786,-0.491067 0.27094,-0.2032 0.508,-0.2032 0.23707,0 0.37254,0.1524 0.1524,0.1524 0.13546,0.474133 -0.0169,0.321734 -0.0169,3.522133 l 1.9812,-0.06773 q 0.508,0 0.508,0.592667 0,0.440266 -0.27094,0.6604 -0.254,0.220133 -0.5588,0.237066 -0.28786,0.01693 -0.57573,0.01693 l -1.03293,-0.01693 q 0,0.694267 0.13547,2.7432 0.1524,2.048933 0.23706,2.658533 0.0847,0.592667 0.0339,0.778934 -0.0508,0.169333 -0.18627,0.237066 -0.22013,0.1016 -0.59266,0.1016 -0.37254,0 -0.44027,-0.4064 -0.33867,-2.218266 -0.4572,-6.095999 -0.1524,0.01693 -1.1684,0.01693 -1.016,0 -1.016,-0.592667 0,-0.846666 0.94827,-0.846666 z"
         style="font-style:normal;font-variant:normal;font-weight:normal;font-stretch:normal;font-size:16.93333244px;font-family:'Patrick Hand';-inkscape-font-specification:'Patrick Hand';stroke-width:0.26458332"
         id="path36" />
      <path
         d="m 125.32043,57.546334 0.13547,3.996267 q 0,0.745066 -0.0677,0.8636 -0.0339,0.3048 -0.2032,0.474133 -0.1524,0.169333 -0.6096,0.169333 -0.22014,0 -0.3556,-0.270933 -0.13547,-0.287867 -0.1524,-0.643467 -0.11854,-2.980266 -0.32174,-5.587999 -0.18626,-2.624667 -0.18626,-4.8768 0,-0.3556 0.23706,-0.5588 0.23707,-0.2032 0.5588,-0.2032 0.47414,0 0.5588,0.8128 0.1016,0.8128 0.11854,2.032 0.0339,1.2192 0.0677,1.778 0.84667,-0.440267 1.69333,-0.440267 1.96427,0 2.4892,1.7272 0.3048,0.982133 0.3048,2.523066 0,0.508 -0.1016,1.608667 -0.0847,1.083733 -0.1016,1.405467 -0.0169,0.321733 -0.28786,0.508 -0.254,0.169333 -0.5588,0.169333 -0.47414,0 -0.47414,-0.508 l 0.11854,-2.9464 q 0,-0.372533 -0.0339,-1.236133 -0.0339,-0.8636 -0.3556,-1.3716 -0.3048,-0.508 -1.08373,-0.508 -1.38854,0 -1.38854,1.083733 z"
         style="font-style:normal;font-variant:normal;font-weight:normal;font-stretch:normal;font-size:16.93333244px;font-family:'Patrick Hand';-inkscape-font-specification:'Patrick Hand';stroke-width:0.26458332"
         id="path38" />
      <path
         d="m 136.02227,55.209534 q 0.22013,0 0.42333,0.1524 0.22014,0.1524 0.22014,0.338667 0,0.491067 -1.43934,5.317066 -1.43933,4.826 -2.1336,6.773333 -0.1524,0.4572 -0.47413,0.4572 -0.32173,0 -0.508,-0.237066 -0.18627,-0.220134 -0.18627,-0.6604 0,-0.440267 0.5588,-2.116667 0.57574,-1.659466 0.69427,-2.116666 -0.42333,-0.7112 -2.86173,-7.112 -0.0339,-0.08467 -0.0339,-0.220133 0,-0.135467 0.2032,-0.3556 0.2032,-0.220134 0.5588,-0.220134 0.3556,0 0.57573,0.3556 0.23707,0.6096 0.77894,2.1336 0.54186,1.507067 0.82973,2.1844 0.3048,0.677333 0.57573,1.405467 0.23707,-0.795867 0.8128,-3.081867 0.57574,-2.302933 0.6604,-2.624666 0.0677,-0.372534 0.74507,-0.372534 z"
         style="font-style:normal;font-variant:normal;font-weight:normal;font-stretch:normal;font-size:16.93333244px;font-family:'Patrick Hand';-inkscape-font-specification:'Patrick Hand';stroke-width:0.26458332"
         id="path40" />
    </g>
  </g>
</svg>
